<svg width="66" height="66" viewBox="0 0 66 66" fill="none" xmlns="http://www.w3.org/2000/svg">
<g filter="url(#filter0_d_79_118)">
<circle cx="32.8284" cy="28.5144" r="28.5144" fill="#FFD56B"/>
<g clip-path="url(#clip0_79_118)">
<path d="M45.5183 16.5245C43.2524 15.4848 40.8226 14.7188 38.2821 14.2801C38.2359 14.2716 38.1896 14.2928 38.1658 14.3351C37.8533 14.8909 37.5072 15.616 37.2648 16.1859C34.5323 15.7768 31.8138 15.7768 29.1374 16.1859C28.895 15.6033 28.5362 14.8909 28.2223 14.3351C28.1985 14.2942 28.1523 14.273 28.106 14.2801C25.5669 14.7174 23.1371 15.4834 20.8699 16.5245C20.8502 16.5329 20.8334 16.5471 20.8222 16.5654C16.2134 23.4509 14.9509 30.1671 15.5703 36.8C15.5731 36.8325 15.5913 36.8635 15.6165 36.8833C18.6573 39.1163 21.6028 40.472 24.4936 41.3706C24.5398 41.3847 24.5888 41.3678 24.6183 41.3297C25.3021 40.3958 25.9117 39.4112 26.4343 38.3757C26.4652 38.3151 26.4357 38.2431 26.3727 38.2192C25.4058 37.8524 24.4851 37.4052 23.5995 36.8974C23.5295 36.8565 23.5239 36.7563 23.5883 36.7083C23.7747 36.5687 23.9611 36.4234 24.1391 36.2766C24.1713 36.2499 24.2161 36.2442 24.254 36.2611C30.072 38.9174 36.3708 38.9174 42.1202 36.2611C42.158 36.2428 42.2029 36.2485 42.2365 36.2752C42.4145 36.422 42.6008 36.5687 42.7886 36.7083C42.8531 36.7563 42.8489 36.8565 42.7788 36.8974C41.8932 37.4151 40.9725 37.8524 40.0043 38.2178C39.9412 38.2417 39.9132 38.3151 39.944 38.3757C40.4779 39.4097 41.0875 40.3944 41.7587 41.3283C41.7867 41.3678 41.8371 41.3847 41.8834 41.3706C44.7882 40.472 47.7337 39.1163 50.7744 36.8833C50.8011 36.8635 50.8179 36.8339 50.8207 36.8014C51.562 29.133 49.5791 22.4719 45.5645 16.5668C45.5547 16.5471 45.5379 16.5329 45.5183 16.5245ZM27.3031 32.7613C25.5515 32.7613 24.1082 31.1531 24.1082 29.1782C24.1082 27.2032 25.5235 25.5951 27.3031 25.5951C29.0967 25.5951 30.5261 27.2173 30.498 29.1782C30.498 31.1531 29.0827 32.7613 27.3031 32.7613ZM39.1159 32.7613C37.3643 32.7613 35.921 31.1531 35.921 29.1782C35.921 27.2032 37.3362 25.5951 39.1159 25.5951C40.9095 25.5951 42.3388 27.2173 42.3108 29.1782C42.3108 31.1531 40.9095 32.7613 39.1159 32.7613Z" fill="white"/>
</g>
</g>
<defs>
<filter id="filter0_d_79_118" x="0.313965" y="0" width="65.0288" height="65.0288" filterUnits="userSpaceOnUse" color-interpolation-filters="sRGB">
<feFlood flood-opacity="0" result="BackgroundImageFix"/>
<feColorMatrix in="SourceAlpha" type="matrix" values="0 0 0 0 0 0 0 0 0 0 0 0 0 0 0 0 0 0 127 0" result="hardAlpha"/>
<feOffset dy="4"/>
<feGaussianBlur stdDeviation="2"/>
<feComposite in2="hardAlpha" operator="out"/>
<feColorMatrix type="matrix" values="0 0 0 0 0 0 0 0 0 0 0 0 0 0 0 0 0 0 0.25 0"/>
<feBlend mode="normal" in2="BackgroundImageFix" result="effect1_dropShadow_79_118"/>
<feBlend mode="normal" in="SourceGraphic" in2="effect1_dropShadow_79_118" result="shape"/>
</filter>
<clipPath id="clip0_79_118">
<rect width="35.5504" height="35.5504" fill="white" transform="translate(15.4233 10.3689)"/>
</clipPath>
</defs>
</svg>
