<svg width="66" height="66" viewBox="0 0 66 66" fill="none" xmlns="http://www.w3.org/2000/svg">
<g filter="url(#filter0_d_79_117)">
<circle cx="33.1716" cy="28.5144" r="28.5144" fill="#FFD56B"/>
<g clip-path="url(#clip0_79_117)">
<path d="M33.5418 13.5698C38.2911 13.5698 38.8536 13.5907 40.7213 13.674C42.4572 13.7504 43.3946 14.042 44.0195 14.285C44.8457 14.6044 45.4429 14.9932 46.0608 15.6112C46.6858 16.2361 47.0676 16.8263 47.387 17.6526C47.6301 18.2775 47.9217 19.2218 47.9981 20.9507C48.0814 22.8254 48.1022 23.3879 48.1022 28.1302C48.1022 32.8795 48.0814 33.442 47.9981 35.3098C47.9217 37.0456 47.6301 37.983 47.387 38.6079C47.0676 39.4342 46.6788 40.0313 46.0608 40.6493C45.4359 41.2742 44.8457 41.6561 44.0195 41.9755C43.3946 42.2185 42.4503 42.5101 40.7213 42.5865C38.8466 42.6698 38.2842 42.6906 33.5418 42.6906C28.7925 42.6906 28.2301 42.6698 26.3623 42.5865C24.6264 42.5101 23.6891 42.2185 23.0642 41.9755C22.2379 41.6561 21.6408 41.2672 21.0228 40.6493C20.3979 40.0243 20.016 39.4342 19.6966 38.6079C19.4536 37.983 19.1619 37.0387 19.0856 35.3098C19.0022 33.435 18.9814 32.8726 18.9814 28.1302C18.9814 23.3809 19.0022 22.8185 19.0856 20.9507C19.1619 19.2148 19.4536 18.2775 19.6966 17.6526C20.016 16.8263 20.4048 16.2292 21.0228 15.6112C21.6477 14.9863 22.2379 14.6044 23.0642 14.285C23.6891 14.042 24.6334 13.7504 26.3623 13.674C28.2301 13.5907 28.7925 13.5698 33.5418 13.5698ZM33.5418 10.3689C28.7161 10.3689 28.112 10.3897 26.2165 10.473C24.3279 10.5564 23.0294 10.8619 21.9046 11.2993C20.7312 11.7576 19.7383 12.3617 18.7523 13.3546C17.7594 14.3405 17.1553 15.3335 16.697 16.5C16.2596 17.6317 15.9541 18.9232 15.8708 20.8118C15.7874 22.7143 15.7666 23.3184 15.7666 28.1441C15.7666 32.9698 15.7874 33.5739 15.8708 35.4694C15.9541 37.3581 16.2596 38.6565 16.697 39.7813C17.1553 40.9548 17.7594 41.9477 18.7523 42.9337C19.7383 43.9196 20.7312 44.5306 21.8977 44.982C23.0294 45.4194 24.3209 45.7249 26.2095 45.8082C28.1051 45.8916 28.7092 45.9124 33.5349 45.9124C38.3606 45.9124 38.9646 45.8916 40.8602 45.8082C42.7488 45.7249 44.0473 45.4194 45.1721 44.982C46.3386 44.5306 47.3315 43.9196 48.3175 42.9337C49.3034 41.9477 49.9145 40.9548 50.3658 39.7883C50.8032 38.6565 51.1087 37.365 51.1921 35.4764C51.2754 33.5808 51.2962 32.9768 51.2962 28.1511C51.2962 23.3254 51.2754 22.7213 51.1921 20.8257C51.1087 18.9371 50.8032 17.6387 50.3658 16.5138C49.9283 15.3335 49.3243 14.3405 48.3314 13.3546C47.3454 12.3686 46.3525 11.7576 45.186 11.3063C44.0542 10.8688 42.7627 10.5633 40.8741 10.48C38.9716 10.3897 38.3675 10.3689 33.5418 10.3689Z" fill="white"/>
<path d="M33.5418 19.0135C28.5008 19.0135 24.4111 23.1032 24.4111 28.1441C24.4111 33.1851 28.5008 37.2747 33.5418 37.2747C38.5827 37.2747 42.6724 33.1851 42.6724 28.1441C42.6724 23.1032 38.5827 19.0135 33.5418 19.0135ZM33.5418 34.0669C30.2714 34.0669 27.619 31.4145 27.619 28.1441C27.619 24.8738 30.2714 22.2214 33.5418 22.2214C36.8121 22.2214 39.4645 24.8738 39.4645 28.1441C39.4645 31.4145 36.8121 34.0669 33.5418 34.0669Z" fill="white"/>
<path d="M45.1651 18.6524C45.1651 19.8328 44.2069 20.784 43.0335 20.784C41.8531 20.784 40.9019 19.8258 40.9019 18.6524C40.9019 17.472 41.8601 16.5208 43.0335 16.5208C44.2069 16.5208 45.1651 17.4789 45.1651 18.6524Z" fill="white"/>
</g>
</g>
<defs>
<filter id="filter0_d_79_117" x="0.657227" y="0" width="65.0288" height="65.0288" filterUnits="userSpaceOnUse" color-interpolation-filters="sRGB">
<feFlood flood-opacity="0" result="BackgroundImageFix"/>
<feColorMatrix in="SourceAlpha" type="matrix" values="0 0 0 0 0 0 0 0 0 0 0 0 0 0 0 0 0 0 127 0" result="hardAlpha"/>
<feOffset dy="4"/>
<feGaussianBlur stdDeviation="2"/>
<feComposite in2="hardAlpha" operator="out"/>
<feColorMatrix type="matrix" values="0 0 0 0 0 0 0 0 0 0 0 0 0 0 0 0 0 0 0.25 0"/>
<feBlend mode="normal" in2="BackgroundImageFix" result="effect1_dropShadow_79_117"/>
<feBlend mode="normal" in="SourceGraphic" in2="effect1_dropShadow_79_117" result="shape"/>
</filter>
<clipPath id="clip0_79_117">
<rect width="35.5504" height="35.5504" fill="white" transform="translate(15.7666 10.3689)"/>
</clipPath>
</defs>
</svg>
