<svg width="290" height="86" viewBox="0 0 290 86" fill="none" xmlns="http://www.w3.org/2000/svg">
<path d="M10.825 80.25C13.225 79.5 16.375 80.1 19.825 81.3C27.175 83.55 32.575 85.2 38.575 85.2C46.975 85.35 56.725 82.35 63.025 76.35C68.575 71.1 71.275 63.45 70.525 55.35C68.125 32.4 54.175 33.3 40.225 30.75C34.525 29.7 31.525 28.35 30.325 25.65C24.325 13.8 46.675 9.60001 52.825 24.9C54.925 30.45 60.175 29.85 62.425 27.9C65.125 25.65 65.575 18.75 65.575 13.65C65.575 10.65 65.425 7.5 65.425 4.65C65.425 0.900006 63.325 0 60.925 0C58.375 0 55.675 1.05 54.325 1.2C47.275 2.7 42.325 0.150007 35.575 0.150007C28.525 0.150007 19.525 1.95 12.775 6.3C3.17501 12.3 -0.874988 25.8 6.47501 35.25C11.875 42.15 24.475 42.45 33.925 47.25C35.275 47.85 36.625 48.6 37.825 49.5C44.875 54.3 39.775 61.05 35.125 61.35C28.675 61.65 19.075 59.7 17.125 50.25C16.825 48.6 15.025 46.2 13.675 45.75C8.57501 43.5 4.97501 46.65 2.87501 51.3C0.0250125 57.3 0.325013 62.85 0.0250126 69.3C-0.424987 77.4 5.27501 81.9 10.825 80.25Z" fill="#939B62"/>
<path d="M84.875 8.75001C78.325 8.75001 73.075 15.1 73.075 23C73.075 30.85 78.325 37.2 84.875 37.2C91.375 37.2 96.675 30.85 96.675 23C96.675 15.1 91.375 8.75001 84.875 8.75001ZM84.875 29.35C82.775 29.35 81.025 25.95 81.025 21.7C81.025 17.5 82.775 14.1 84.875 14.1C86.975 14.1 88.675 17.5 88.675 21.7C88.675 25.95 86.975 29.35 84.875 29.35Z" fill="#939B62"/>
<path d="M111.895 31.4C110.945 30.2 109.995 27.25 109.645 24.25V10.15C109.795 9.50001 109.995 8.75001 110.395 7.80001C113.945 -0.0499935 106.345 2.35001 102.945 3.60001C101.695 4.10001 101.145 4.7 100.945 5.60001C100.445 7.75001 101.795 10.05 101.795 12.1V24.25C100.845 28.9 98.5449 28.15 98.5449 31.95C98.5449 34.8 100.445 37.15 102.795 37.15C105.095 37.15 110.545 37.75 112.195 35.6C113.095 34.4 112.945 32.7 111.895 31.4Z" fill="#939B62"/>
<path d="M139.15 31.15C138.05 29.75 138.15 21.25 138.15 18.85C138.1 11.45 132 8.2 126.3 8.45001C123.5 8.60001 120.65 9.50001 118.9 11.4C117.9 12.5 115.65 15.95 118.2 16.95C118.8 17.2 122.3 18 123.35 17.35C124.2 16.8 122.4 15.4 124.3 14.05C126.2 12.65 130.15 13.2 130.3 17.85C130.3 17.95 130.3 18.2 130.3 18.3C130.3 19.95 130 19.8 128.25 19.6C127.55 19.5 127.25 19.45 126.6 19.4C118.35 18.75 115.8 21.6 114.8 25.35C113.7 29.35 115.65 33.6 117.75 35.5C119.45 37.05 122.9 37.7 125 36.95C126.3 36.5 127.25 35.95 128 34.95C128.8 36.15 129.95 37.15 131.3 37.15C133.6 37.15 137.75 37.85 139.4 35.7C140.35 34.5 140.15 32.4 139.15 31.15ZM130.25 26.65C130.15 27.35 128.9 29.45 125.3 29.45C121.7 29.45 120.5 26.4 122.5 24.3C123.85 22.9 126.55 23.4 128.55 23.85C130.25 24.25 130.2 24.25 130.25 25.55C130.3 26.4 130.3 26.2 130.25 26.65Z" fill="#939B62"/>
<path d="M167.83 20.55C167.73 19.9 167.63 18.9 167.53 17.25C167.28 14.2 165.03 9.05001 159.38 9.45001C157.98 9.55 155.98 10.25 154.48 12.1C155.23 7.40001 149.13 9.40001 146.18 10.45C144.93 10.95 144.38 11.55 144.18 12.45C143.68 14.6 145.03 16.9 145.03 18.95V24.6C144.08 29.25 141.78 28.5 141.78 32.35C141.78 35.15 143.68 37.5 146.03 37.5C148.33 37.5 153.78 38.1 155.43 36C156.33 34.75 156.18 33.05 155.13 31.75C154.58 31.1 154.03 29.85 153.63 28.3C153.38 27.4 153.38 25.4 153.73 23.35C154.33 19.5 155.73 16.65 157.38 16.1C159.28 15.45 160.03 17.7 159.68 22.1C159.58 24 163.23 24.1 165.43 23.8C166.18 23.65 167.03 23.7 167.43 23.5C169.18 22.5 167.98 21.7 167.83 20.55Z" fill="#939B62"/>
<path d="M185.825 8.30001C184.075 8.2 182.275 8.85001 180.925 10.45C180.375 7.45001 175.175 9.15001 172.575 10.1C171.325 10.6 170.775 11.2 170.575 12.1C170.075 14.25 171.425 16.55 171.425 18.6V30.75C170.475 35.4 168.175 34.65 168.175 38.45C168.175 41.3 170.075 43.65 172.425 43.65C174.725 43.65 180.175 44.25 181.825 42.1C182.375 41.35 182.525 40.4 182.325 39.45C181.675 36.9 179.625 37.8 178.925 35.05C178.825 34.45 178.875 34.15 178.925 34.25C179.675 35.1 180.275 35.8 181.175 36.3C182.775 37.2 184.475 37.4 185.875 37.3C190.775 36.85 194.125 31.25 194.725 26.1C194.925 24.75 194.975 23.4 194.975 22.25C194.925 13.8 190.225 8.60001 185.825 8.30001ZM183.375 29.35C181.675 29.4 178.875 28.85 178.825 27.7C178.725 26.05 178.825 24.5 178.825 24.5L178.775 22.4C178.725 18.8 181.375 15.75 183.875 15.35C186.025 15 188.075 16.65 188.325 21.6C188.525 25.1 187.075 29.15 183.375 29.35Z" fill="#939B62"/>
<path d="M223.777 31.4C222.927 30.3 222.077 27.7 221.627 25C221.627 22.95 221.527 21 221.527 18.85V16.65C221.677 16 221.927 15.25 222.327 14.3C225.827 6.45001 219.277 8.60001 215.877 9.85001C214.627 10.3 214.077 10.95 213.877 11.8C213.377 14 214.677 16.25 214.677 18.35C214.677 32.7 206.077 31.35 206.077 24.05V16.65C206.177 16 206.427 15.25 206.827 14.3C210.327 6.45001 202.727 8.85001 199.377 10.1C198.127 10.6 197.577 11.2 197.377 12.1C196.877 14.25 198.177 16.55 198.177 18.6C198.177 20.9 198.227 23.15 198.227 25.4C198.227 31.8 202.277 37.05 208.377 37.2C210.477 37.25 213.277 36.55 214.677 34.65C215.227 39 223.027 36.95 224.077 35.6C225.027 34.4 224.827 32.7 223.777 31.4Z" fill="#939B62"/>
<path d="M255.207 31.4C254.207 30.2 253.307 27.25 252.907 24.25V18.85C252.907 14.65 250.257 10.1 245.657 9.00001C243.257 8.4 240.957 9.15001 239.157 10.6C238.757 7.40001 233.457 9.15001 230.807 10.1C229.557 10.6 229.007 11.2 228.807 12.1C228.307 14.25 229.657 16.55 229.657 18.6V24.25C228.707 28.9 226.407 28.15 226.407 31.95C226.407 34.8 228.307 37.15 230.657 37.15C232.957 37.15 238.407 37.75 240.057 35.6C240.957 34.4 240.807 32.7 239.757 31.4C238.807 30.2 237.857 27.25 237.507 24.25V19.4C238.607 13.55 246.257 12.6 246.207 19.45V24.25C245.307 28.9 242.957 28.15 242.957 31.95C242.957 34.8 244.907 37.15 247.257 37.15C249.557 37.15 253.807 37.75 255.457 35.6C256.407 34.4 256.207 32.7 255.207 31.4Z" fill="#939B62"/>
<path d="M283.795 29.95C281.495 27.85 281.495 26.75 280.245 23.95C279.295 21.9 278.395 19.8 277.445 17.75L277.295 17.35C278.845 15.9 279.095 15.65 280.645 14.15C281.295 13.55 282.745 12.45 283.195 11.3C283.645 10.15 283.045 9.00001 281.045 8.75001C280.445 8.70001 276.595 8.60001 275.995 8.70001C275.745 8.75001 275.445 8.80001 275.195 9.15001C274.445 10.1 275.145 10.25 274.195 11.15C272.395 12.8 272.145 12.95 270.345 14.6C269.245 15.6 268.645 16.65 268.645 14.95V10.15C268.795 9.50001 268.995 8.75001 269.395 7.80001C272.945 -0.0499935 265.345 2.35001 261.945 3.60001C260.695 4.10001 260.145 4.7 259.945 5.60001C259.445 7.75001 260.795 10.05 260.795 12.1V24.25C259.845 28.9 257.545 28.15 257.545 31.95C257.545 34.8 259.445 37.15 261.795 37.15C264.095 37.15 269.545 37.75 271.195 35.6C272.095 34.4 271.945 32.7 270.895 31.4C270.095 30.45 269.345 28.2 268.895 25.8C268.745 25.1 268.895 25.15 269.345 24.7C269.945 24.2 270.145 24 270.645 23.6C271.395 22.95 271.445 23.6 271.895 24.65L273.545 28.35C274.745 31.1 273.345 33.25 274.145 35.7C274.545 37.05 275.745 37.2 277.095 37.2C279.495 37.25 284.195 37.95 285.345 35.55C285.895 34.3 286.045 32 283.795 29.95Z" fill="#939B62"/>
<path d="M87.875 51.75C81.325 51.75 76.075 58.1 76.075 66C76.075 73.85 81.325 80.2 87.875 80.2C94.375 80.2 99.675 73.85 99.675 66C99.675 58.1 94.375 51.75 87.875 51.75ZM87.875 72.35C85.775 72.35 84.025 68.95 84.025 64.7C84.025 60.5 85.775 57.1 87.875 57.1C89.975 57.1 91.675 60.5 91.675 64.7C91.675 68.95 89.975 72.35 87.875 72.35Z" fill="#FFB26B"/>
<path d="M118.395 74.4C117.445 73.2 116.495 70.25 116.145 67.25V53.15C116.295 52.5 116.495 51.75 116.895 50.8C120.445 42.95 112.845 45.35 109.445 46.6C108.195 47.1 107.645 47.7 107.445 48.6C106.945 50.75 108.295 53.05 108.295 55.1V67.25C107.345 71.9 105.045 71.15 105.045 74.95C105.045 77.8 106.945 80.15 109.295 80.15C111.595 80.15 117.045 80.75 118.695 78.6C119.595 77.4 119.445 75.7 118.395 74.4Z" fill="#FFB26B"/>
<path d="M150.468 74.4C149.618 73.3 148.768 70.7 148.318 68C148.318 65.95 148.218 64 148.218 61.85V59.65C148.368 59 148.618 58.25 149.018 57.3C152.518 49.45 145.968 51.6 142.568 52.85C141.318 53.3 140.768 53.95 140.568 54.8C140.068 57 141.368 59.25 141.368 61.35C141.368 75.7 132.768 74.35 132.768 67.05V59.65C132.868 59 133.118 58.25 133.518 57.3C137.018 49.45 129.418 51.85 126.068 53.1C124.818 53.6 124.268 54.2 124.068 55.1C123.568 57.25 124.868 59.55 124.868 61.6C124.868 63.9 124.918 66.15 124.918 68.4C124.918 74.8 128.968 80.05 135.068 80.2C137.168 80.25 139.968 79.55 141.368 77.65C141.918 82 149.718 79.95 150.768 78.6C151.718 77.4 151.518 75.7 150.468 74.4Z" fill="#FFB26B"/>
<path d="M177.349 67.8C176.549 66.55 170.249 67.35 171.249 68.9C171.849 69.8 172.049 72.1 170.749 72.25C168.399 72.55 168.549 67.75 168.549 66.05V57.1H176.049C176.949 57.1 177.699 56.35 177.699 55.45V53.3C177.699 52.35 176.949 51.6 176.049 51.6H171.549C170.199 51.6 168.899 51.75 169.449 50.6C170.349 48.5 170.399 47.35 170.049 46.5C169.099 44.15 164.349 45.7 161.849 46.6C160.599 47.1 160.849 47.95 160.699 48.8C159.649 53.4 156.199 50.45 156.199 52.85V55.45C156.199 56.35 156.949 57.1 157.849 57.1H160.699V66.1C160.699 72.35 160.249 80.15 168.649 80.2C173.399 80.2 176.149 78.05 177.249 75.05C178.049 73.05 178.349 69.35 177.349 67.8Z" fill="#FFB26B"/>
<path d="M196.873 74.4C195.923 73.2 194.973 70.25 194.623 67.25V59.65C194.773 59 194.973 58.25 195.373 57.3C198.923 49.45 191.323 51.85 187.923 53.1C186.673 53.6 186.123 54.2 185.923 55.1C185.423 57.25 186.773 59.55 186.773 61.6V67.25C185.823 71.9 183.523 71.15 183.523 74.95C183.523 77.8 185.423 80.15 187.773 80.15C190.073 80.15 195.523 80.75 197.173 78.6C198.073 77.4 197.923 75.7 196.873 74.4ZM191.473 50.9C194.423 50 196.423 48.1 195.873 46.6C195.323 45.15 192.473 44.7 189.523 45.6C186.573 46.5 184.573 48.4 185.123 49.85C185.673 51.3 188.523 51.8 191.473 50.9Z" fill="#FFB26B"/>
<path d="M213.852 51.75C207.302 51.75 202.052 58.1 202.052 66C202.052 73.85 207.302 80.2 213.852 80.2C220.352 80.2 225.652 73.85 225.652 66C225.652 58.1 220.352 51.75 213.852 51.75ZM213.852 72.35C211.752 72.35 210.002 68.95 210.002 64.7C210.002 60.5 211.752 57.1 213.852 57.1C215.952 57.1 217.652 60.5 217.652 64.7C217.652 68.95 215.952 72.35 213.852 72.35Z" fill="#FFB26B"/>
<path d="M259.481 74.4C258.481 73.2 257.581 70.25 257.181 67.25V61.85C257.181 57.65 254.531 53.1 249.931 52C247.531 51.4 245.231 52.15 243.431 53.6C243.031 50.4 237.731 52.15 235.081 53.1C233.831 53.6 233.281 54.2 233.081 55.1C232.581 57.25 233.931 59.55 233.931 61.6V67.25C232.981 71.9 230.681 71.15 230.681 74.95C230.681 77.8 232.581 80.15 234.931 80.15C237.231 80.15 242.681 80.75 244.331 78.6C245.231 77.4 245.081 75.7 244.031 74.4C243.081 73.2 242.131 70.25 241.781 67.25V62.4C242.881 56.55 250.531 55.6 250.481 62.45V67.25C249.581 71.9 247.231 71.15 247.231 74.95C247.231 77.8 249.181 80.15 251.531 80.15C253.831 80.15 258.081 80.75 259.731 78.6C260.681 77.4 260.481 75.7 259.481 74.4Z" fill="#FFB26B"/>
<path d="M269.268 78.85C270.068 78.6 271.118 78.8 272.268 79.2C274.718 79.95 276.518 80.5 278.518 80.5C281.318 80.55 284.568 79.55 286.668 77.55C288.518 75.8 289.418 73.25 289.168 70.55C288.368 62.9 283.718 63.2 279.068 62.35C277.168 62 276.168 61.55 275.768 60.65C273.768 56.7 281.218 55.3 283.268 60.4C283.968 62.25 285.718 62.05 286.468 61.4C287.368 60.65 287.518 58.35 287.518 56.65C287.518 55.65 287.468 54.6 287.468 53.65C287.468 52.4 286.768 52.1 285.968 52.1C285.118 52.1 284.218 52.45 283.768 52.5C281.418 53 279.768 52.15 277.518 52.15C275.168 52.15 272.168 52.75 269.918 54.2C266.718 56.2 265.368 60.7 267.818 63.85C269.618 66.15 273.818 66.25 276.968 67.85C277.418 68.05 277.868 68.3 278.268 68.6C280.618 70.2 278.918 72.45 277.368 72.55C275.218 72.65 272.018 72 271.368 68.85C271.268 68.3 270.668 67.5 270.218 67.35C268.518 66.6 267.318 67.65 266.618 69.2C265.668 71.2 265.768 73.05 265.668 75.2C265.518 77.9 267.418 79.4 269.268 78.85Z" fill="#FFB26B"/>
</svg>
