<svg width="66" height="66" viewBox="0 0 66 66" fill="none" xmlns="http://www.w3.org/2000/svg">
<g filter="url(#filter0_d_79_119)">
<circle cx="33.4856" cy="28.5144" r="28.5144" fill="#FFD56B"/>
<g clip-path="url(#clip0_79_119)">
<path d="M40.6287 10.3689H34.6374V34.5844C34.6374 37.4697 32.3331 39.8397 29.4655 39.8397C26.5978 39.8397 24.2935 37.4697 24.2935 34.5844C24.2935 31.7507 26.5466 29.4321 29.3119 29.3291V23.2495C23.2182 23.3525 18.3022 28.3502 18.3022 34.5844C18.3022 40.8702 23.3206 45.9193 29.5167 45.9193C35.7127 45.9193 40.7311 40.8186 40.7311 34.5844V22.1675C42.9842 23.8162 45.7494 24.7952 48.6682 24.8467V18.767C44.162 18.6125 40.6287 14.9029 40.6287 10.3689Z" fill="white"/>
</g>
</g>
<defs>
<filter id="filter0_d_79_119" x="0.971191" y="0" width="65.0288" height="65.0288" filterUnits="userSpaceOnUse" color-interpolation-filters="sRGB">
<feFlood flood-opacity="0" result="BackgroundImageFix"/>
<feColorMatrix in="SourceAlpha" type="matrix" values="0 0 0 0 0 0 0 0 0 0 0 0 0 0 0 0 0 0 127 0" result="hardAlpha"/>
<feOffset dy="4"/>
<feGaussianBlur stdDeviation="2"/>
<feComposite in2="hardAlpha" operator="out"/>
<feColorMatrix type="matrix" values="0 0 0 0 0 0 0 0 0 0 0 0 0 0 0 0 0 0 0.25 0"/>
<feBlend mode="normal" in2="BackgroundImageFix" result="effect1_dropShadow_79_119"/>
<feBlend mode="normal" in="SourceGraphic" in2="effect1_dropShadow_79_119" result="shape"/>
</filter>
<clipPath id="clip0_79_119">
<rect width="35.5504" height="35.5504" fill="white" transform="translate(15.3398 10.3689)"/>
</clipPath>
</defs>
</svg>
