<svg width="66" height="66" viewBox="0 0 66 66" fill="none" xmlns="http://www.w3.org/2000/svg">
<g filter="url(#filter0_d_79_116)">
<circle cx="32.5144" cy="28.5144" r="28.5144" fill="#FFD56B"/>
<g clip-path="url(#clip0_79_116)">
<path d="M26.2932 42.5865C39.7051 42.5865 47.043 31.4722 47.043 21.8367C47.043 21.5243 47.036 21.2049 47.0221 20.8924C48.4496 19.8601 49.6814 18.5815 50.6598 17.1166C49.3304 17.7081 47.9189 18.0944 46.4736 18.2623C47.9954 17.3501 49.1349 15.917 49.6808 14.2288C48.2491 15.0773 46.6835 15.6758 45.0509 15.9987C43.9509 14.8299 42.4965 14.056 40.9126 13.7967C39.3287 13.5374 37.7034 13.8071 36.2882 14.5641C34.8729 15.3211 33.7464 16.5232 33.0829 17.9846C32.4193 19.4461 32.2557 21.0854 32.6173 22.6491C29.7184 22.5037 26.8824 21.7506 24.2932 20.4388C21.704 19.127 19.4194 17.2857 17.5875 15.0343C16.6564 16.6395 16.3715 18.5391 16.7907 20.3469C17.2098 22.1547 18.3016 23.7351 19.8441 24.7669C18.6861 24.7301 17.5534 24.4183 16.5397 23.8573V23.9476C16.5387 25.6322 17.1211 27.2652 18.1879 28.569C19.2547 29.8728 20.7402 30.7669 22.3917 31.0993C21.3189 31.3928 20.1931 31.4356 19.1012 31.2243C19.5672 32.6731 20.4739 33.9402 21.6948 34.8489C22.9156 35.7576 24.3897 36.2624 25.9113 36.293C23.3281 38.3222 20.1371 39.4228 16.8522 39.4175C16.2696 39.4167 15.6877 39.381 15.1094 39.3106C18.4465 41.4515 22.3284 42.5886 26.2932 42.5865Z" fill="white"/>
</g>
</g>
<defs>
<filter id="filter0_d_79_116" x="0" y="0" width="65.0288" height="65.0288" filterUnits="userSpaceOnUse" color-interpolation-filters="sRGB">
<feFlood flood-opacity="0" result="BackgroundImageFix"/>
<feColorMatrix in="SourceAlpha" type="matrix" values="0 0 0 0 0 0 0 0 0 0 0 0 0 0 0 0 0 0 127 0" result="hardAlpha"/>
<feOffset dy="4"/>
<feGaussianBlur stdDeviation="2"/>
<feComposite in2="hardAlpha" operator="out"/>
<feColorMatrix type="matrix" values="0 0 0 0 0 0 0 0 0 0 0 0 0 0 0 0 0 0 0.25 0"/>
<feBlend mode="normal" in2="BackgroundImageFix" result="effect1_dropShadow_79_116"/>
<feBlend mode="normal" in="SourceGraphic" in2="effect1_dropShadow_79_116" result="shape"/>
</filter>
<clipPath id="clip0_79_116">
<rect width="35.5504" height="35.5504" fill="white" transform="translate(15.1094 10.3689)"/>
</clipPath>
</defs>
</svg>
